<svg xmlns="http://www.w3.org/2000/svg" width="334" height="230" viewBox="0 0 334 230">
<path fill="#B1E032" d="M206.4,0l0.1,0.1c2.1,4.6,3.4,9.7,3.6,14.7c0.5,11-4.1,22.1-12.2,29.6c-6.4,6-14.9,9.7-23.7,10.2 c5.3-8.7,16.1-25.8,16.1-25.8l-20.1,24.3h-1c0,0,0.7-3.1,0.3-6c-1-8.2-3.9-16.3-9.6-22.4c-1.4-1.7-3.2-3-4.8-4.4 c1.5-2.3,2.7-4.8,4.2-7c1.8,1.7,3.3,3.8,4.7,5.9c2.6,4.2,5.2,13,5.8,15.3c0.7-7.7,3.9-15,8.8-20.9C185.3,5.7,196.2,0.7,206.4,0z"/>
<path fill="#FF8B00" d="M0,39.8l150.4,0.9l0.8,21.4l37.1-3.9l-5.4,36.2H54.2l-4.9-21.5l51.6-5.5L5.4,69.7L0,39.8 M23.9,48.7 c-1.4,1.3-2.4,3.2-2.3,5.1c-0.1,2.2,1.1,4.2,2.8,5.5c0.5,0.5,1.3,0.7,1.9,1.1c1.8,0.5,3.7,0.5,5.5,0.3c0.2-0.2,0.5-0.3,0.8-0.3 c2-0.9,3.9-2.5,4.5-4.6c0.8-2.2,0.2-4.8-1.4-6.5C32.8,45.9,27.1,45.7,23.9,48.7 M41.1,47.1c0.4,1.6,0.3,3.3,0.3,4.9 c-0.1,2.8,0.1,5.6-0.1,8.5c1.5,0,2.9,0,4.4,0c-0.1-3.6-0.1-7.1,0-10.7c0.9-0.1,2-0.1,2.8,0.4c1,0.6,1.2,2.2,0.4,3 c-0.8,0.9-1.9,1.4-3,1.8l0.1,0.2c1.8,2,3.6,4,5.5,5.9c1-0.7,2-1.5,3-2.2l-0.1-0.2c-1.1-1-2.1-2.1-3.2-3c-0.2-0.3,0.4-0.3,0.5-0.6 c1-0.8,1.7-1.9,2-3.1c0.2-1.2-0.3-2.4-1.1-3.3c-1.3-1.4-3.2-1.9-5.1-2C45.4,46.7,43.2,46.6,41.1,47.1 M63.2,47 c-2,4.5-4.1,9-6.1,13.5c1.4,0,2.8,0.1,4.3,0c0.1-0.5,0.4-1,0.5-1.5c1.7,0,3.4,0,5.1,0.1c0.1,0.5,0.4,1,0.6,1.6 c1.5-0.1,2.9,0,4.4-0.1c-0.2-0.6-0.5-1.2-0.8-1.8c-1.6-3.3-3.1-6.6-4.7-10c0-0.1-0.1-0.4-0.1-0.6c-0.1-0.1-0.2-0.4-0.3-0.5 c-0.1-0.2-0.1-0.4-0.2-0.6C65,46.9,64.1,46.9,63.2,47 M75.6,46.9c-0.1,4.5,0.1,9.1-0.1,13.6c1.4-0.1,2.7,0,4.1,0 c-0.1-2.3-0.1-4.7-0.1-7c1.9,2.4,4.1,4.5,6.1,6.9c1,0.1,2.1,0,3.2,0.1c-0.1-4.5-0.1-9,0-13.5c-1.4-0.1-2.7-0.1-4.1,0 c0.1,1.9,0.1,3.8,0.1,5.7c-0.5,0.2-0.7-0.4-1-0.7c-1.5-1.7-3.1-3.3-4.5-5.1C78.1,46.9,76.8,47,75.6,46.9 M94.5,49.6 c-0.8,1-1.2,2.2-1.5,3.4c-0.1,1.9,0.2,3.8,1.4,5.3c1,1.3,2.4,2,3.9,2.5c1.9,0.3,3.9,0.3,5.7-0.2c0.7-0.4,1.5-0.8,2.1-1.4 c1.7-1.7,2.1-4.1,1.9-6.4l-0.2-0.1c-2.7,0-5.5,0-8.2,0c0,1,0,2.1,0,3.1c1.4-0.1,2.8-0.1,4.2-0.1c-0.1,0.7-0.5,1.4-1.2,1.7 c-1,0.5-2.2,0.4-3.3,0.1c-2.8-1.1-2.8-5.8-0.1-7c1.8-0.7,3.9-0.3,5.4,1c0.8-0.8,1.6-1.6,2.2-2.5C103.5,45.9,97.5,45.9,94.5,49.6  M112,46.9c0,4.5,0.1,9.1,0,13.6c2.9,0,5.9,0,8.8,0c0.5-0.2,0.2-0.8,0.4-1.1c0.2-0.6,0.2-1.3,0.4-2c-1.8,0.2-3.7,0-5.5,0.1 c0-0.6,0-1.3,0-1.9c1.7,0,3.4,0,5,0c0-1,0-2.1,0-3.1c-1.7,0-3.4,0-5.1,0c0.1-0.8,0.1-1.6,0-2.4c1.8,0,3.6,0,5.4,0c0-1-0.2-2-0.3-3 C118.1,46.9,115,47,112,46.9 M73.1,76c-2.8,2.6-2.9,7.6,0,10.2c2,2,5.1,2.4,7.8,1.9c1.4-0.3,2.9-0.8,3.8-2c-0.7-0.8-1.3-1.6-2-2.4 c-1.5,1.2-3.9,1.7-5.7,0.6c-2.4-1.3-2.2-5.5,0.4-6.6c1.7-0.8,3.9-0.3,5.3,0.8c0.7-0.8,1.3-1.6,2-2.4c-0.5-0.9-1.8-1.1-2.4-1.9 c-0.8,0.2-1.6-0.3-2.4-0.2C77.4,73.8,74.8,74.3,73.1,76 M93.1,74.1c-2.2,0.4-4.2,1.7-5.3,3.6c-1.5,2.4-1.2,5.6,0.6,7.7 c3.1,3.8,9.6,3.8,12.7,0c1.9-2.1,2.1-5.5,0.5-7.9C99.8,74.8,96.2,73.5,93.1,74.1 M159.9,74.8c-0.6,0.5-1.5,0.6-1.9,1.3 c1.4,1.8,2.5,3.7,3.8,5.5c0.2,0.4,0.6,0.7,0.5,1.1c0,1.7,0,3.4,0,5.1c1.4,0.2,2.9,0,4.3,0.1c0-1.9,0-3.8,0-5.7 c1.4-2.1,2.9-4.2,4.3-6.4c-1.3-0.5-2.4-1.4-3.7-2c-1,1.5-1.9,3-2.8,4.6c-1-1.4-1.9-2.9-2.7-4.5C161,73.9,160.5,74.5,159.9,74.8  M106.7,74.3c0,3,0,6,0,8.9c0,1.9,1.2,3.7,2.9,4.3c2.2,0.8,4.8,0.9,7,0.1c1.6-0.5,2.9-1.9,3.4-3.6c0.2-2.5,0.1-4.9,0.1-7.4 c-0.1-0.8,0.1-1.6-0.1-2.4c-1.4,0.1-2.8,0-4.2,0c0.2,2.7,0.1,5.3,0.1,8c-0.1,0.7,0,1.5-0.6,2c-1.2,1.4-4.1,0.8-4.4-1.2 c0-2.9-0.1-5.8,0.1-8.7C109.5,74.3,108.1,74.3,106.7,74.3 M125,74.3c0.1,4.5,0.2,9.1-0.1,13.6c1.4-0.1,2.8,0,4.2,0 c-0.2-2.3-0.1-4.6-0.2-6.9c2.1,2.3,4.2,4.6,6.2,6.9c1-0.1,2.1,0,3.1,0c-0.1-2.1-0.1-4.1-0.1-6.2c0.2-2.5-0.1-5,0.2-7.4 c-1.4,0-2.8,0-4.1,0c0,2.1,0.1,4.2,0.1,6.4c-1.9-2.1-3.8-4.2-5.7-6.3C127.4,74.2,126.2,74.3,125,74.3 M142.3,74.3 c-0.1,1.1-0.1,2.2-0.2,3.2c0.6-0.1,1.3-0.1,1.9-0.1c0.7,0,1.6,0,2.2,0.1c-0.1,3.4,0.1,6.9-0.1,10.3c1.5,0.1,2.9,0,4.4,0.1 c-0.2-3.4-0.1-6.8-0.1-10.3c0.1-0.1,0.1-0.1,0.2-0.2c1.3,0,2.7,0.1,4,0.1c0-1.1,0.3-2.2,0.3-3.3C150.7,74.3,146.5,74.3,142.3,74.3z  M28.4,50.1c2.5-0.8,5.3,1.4,5,4c-0.2,1.9-2,3.5-3.9,3.4c-2,0-3.8-1.7-3.7-3.7C25.7,52.1,26.8,50.6,28.4,50.1z M63.1,55.5 c0.5-1.1,0.8-2.2,1.3-3.3c0,0.5,0.3,0.9,0.4,1.3c0.3,0.7,0.8,1.5,0.7,2.3c-0.8,0-1.6-0.1-2.3,0C63.2,55.8,63.1,55.6,63.1,55.5z  M94.3,77.4c2.3-0.3,4.5,1.8,4.3,4.1c-0.2,2.3-2.6,3.9-4.8,3.3c-2-0.5-3.4-2.7-2.7-4.6C91.4,78.7,92.7,77.6,94.3,77.4z"/>
<path fill="#0C3D96" d="M184.1,99.2c0.5-0.1,1-0.2,1.5-0.1c4.7,10.2,9.5,20.4,14.2,30.7c0.8,1.6,1.5,3.2,2.5,4.7 c0.1,0,0.2,0.1,0.3,0.1c0.2-8.1,0.5-16.2,0.7-24.4c0-1.7,0-3.5-1.1-4.8c-1-0.9-2.4-1-3.7-1.2c-0.1-0.6-0.1-1.3-0.1-1.9 c6.6,0.2,13.2,0.4,19.8,0.7c4.1,0.2,8.4,0.9,11.6,3.6c2.7,2.2,4,5.7,3.8,9c1.9,0.1,3.9-0.3,5.8-0.4c4.2-0.3,8.4-0.8,12.6-1.1 c0.1,0.5,0.1,1,0.1,1.5c-1.1,0.2-2.3,0.3-3.3,0.8c-0.8,0.5-0.5,1.5-0.3,2.2c0.8,1.8,1.9,3.5,2.9,5.3c1.7,2.9,3.4,5.9,5.1,8.9 c0.2,0.3,0.3,0.6,0.6,0.8c1.3-3.2,2.6-6.4,3.9-9.5c0.8-2,1.7-4,1.9-6.1c0.2-1-0.2-2.3-1.3-2.7c-0.9-0.2-1.9-0.2-2.9-0.2 c-0.2-0.4-0.3-1.1-0.1-1.6c3.6-0.3,7.2-0.6,10.8-0.9c0,0.5,0.2,1,0.1,1.6c-0.6,0.2-1.2,0.4-1.8,0.8c-0.7,0.5-1.1,1.3-1.5,2.1 c-2.4,5.9-4.8,11.7-7.3,17.6c-0.2,0.5-0.5,1-0.4,1.6c0.3,2.9,0.5,5.8,0.8,8.7c0.2,1.2,0.5,2.8,1.9,3.3c-1.1,0.8-2.2,1.6-3.3,2.4 c-4.6,0.3-9.3,0.8-13.9,1.1c-0.1-0.5-0.2-1-0.1-1.6c1.5-0.2,3.5-0.6,3.9-2.3c0.4-1.8,0.1-3.6-0.1-5.4c-0.1-1.3-0.2-2.5-0.4-3.8 c-3.3-5.8-6.7-11.7-10-17.5c-0.9-1.6-1.9-3.4-3.8-3.8c-0.3,2.4-1,4.8-2.6,6.6s-3.7,3.4-6,3.9c0,0.1,0,0.3,0,0.4 c3.1,6.2,6.3,12.4,9.4,18.6c0.5,0.9,0.8,1.8,1.5,2.6c0.5,0.5,1.2,0.5,1.8,0.7c0,0.6-0.1,1.2-0.1,1.8c-4,0-8-0.3-12-0.3 c-3.9-7.6-7.7-15.3-11.5-22.9c-0.5-0.1-1-0.1-1.5-0.1c-0.1,3.8-0.3,7.7-0.4,11.5c0,2.3-0.4,4.8,0.5,7c0.7,1.7,2.8,2,4.4,2.2 c-0.1,0.6,0,1.3-0.1,1.9c-6.6-0.2-13.2-0.4-19.9-0.7c0-0.6,0-1.2,0-1.9c1.5-0.1,3.2-0.2,4.2-1.4c1-1.4,1-3.2,1.1-4.8 c0.1-1.6,0.1-3.1,0.2-4.7c-4.2,0.3-8.5,0.8-12.7,1.1c-0.1-0.5-0.2-1-0.1-1.5c1.1-0.2,2.3-0.2,3.3-0.9c0.6-0.9,0.3-2.1,0-3.1 c-0.8-2-1.7-4-2.6-6c-3.2,0.3-6.4,0.6-9.6,0.9c-0.4,0.1-0.9-0.1-1.1,0.3c-0.4,2.3-1,4.7-1.2,7c-0.1,0.7,0.1,1.6,0.8,2 c0.9,0.7,2.2,0.4,3.2,0.5c0,0.5,0.1,1,0.1,1.4c-3.3,0.3-6.6,0.7-9.9,0.9c-0.1-0.5-0.1-0.9-0.1-1.4c0.8-0.3,1.7-0.7,2.2-1.5 c0.9-1.3,1.2-2.9,1.6-4.4C178.7,121.9,181.4,110.6,184.1,99.2 M214,105.6c-0.8,0.5-1,1.5-1.1,2.3c-0.2,6.1-0.5,12.2-0.6,18.3 c2.6,0.1,5.4-0.1,7.7-1.4c1.3-0.6,2-2,2.4-3.3c0.9-2.6,0.9-5.4,0.8-8.1c-0.1-2-0.5-4.2-1.7-5.9c-1-1.5-2.8-2.4-4.7-2.4 C216,105.2,214.9,105.1,214,105.6 M182.9,113.5c-1,4.1-1.9,8.3-2.9,12.4l0.2,0.1c3-0.3,6-0.5,9-0.8c-1.8-4-3.6-8-5.4-11.9 c-0.2-0.3-0.3-0.7-0.5-1C183,112.6,183,113.1,182.9,113.5z M64.9,103.2c9-0.7,18-1.4,27-2c0,0.7,0.1,1.3,0.1,2 c-1.8,0.3-3.8,0.5-5,1.8c-0.9,1.5-0.8,3.4-0.7,5.2c0.9,13.1,1.9,26.1,2.8,39.2c0.1,1.1,0.2,2.3,1,3.1c0.6,0.6,1.6,0.7,2.4,0.8 c3.7,0.2,7.7-0.8,10.5-3.3c1.4-1.2,2.4-2.8,3.2-4.5c0.6,0.3,1.1,0.8,1.7,1.1c-0.1,2.7-0.3,5.4-0.5,8c-12.9,0.9-25.7,2.1-38.6,3 c0-0.7-0.2-1.3-0.1-2c1.2-0.2,2.6-0.4,3.6-1.3c1.1-0.9,1.3-2.4,1.3-3.8c-0.9-13.3-1.9-26.6-2.8-39.9c-0.1-1.5-0.3-3.2-1.4-4.4 c-1.1-1.1-2.8-1.1-4.3-1.1C64.9,104.6,65,103.9,64.9,103.2z M125.5,104.5c3.9-0.2,7.9-0.1,11.5,1.6c2.2,1,4.1,2.9,4.8,5.4 c0.7,2.8,0.6,6-1.3,8.3c-1.6,1.8-3.7,3.1-6.1,3.7l-0.2,0.2c0.1,0.5,0.7,0.4,1,0.5c2.9,0.7,5.8,2.3,7.5,4.9c1.6,2.4,2,5.5,1.4,8.3 c-0.5,2.7-2.4,4.9-4.6,6.4c-3.2,2.2-7.2,2.9-11,2.9c-6,0.1-12,0.2-18,0.3c0-0.6-0.1-1.1,0-1.7c1.1,0,2.2-0.2,3.2-0.7 c1.1-0.6,1.6-2,1.6-3.2c-0.1-9.6-0.3-19.1-0.4-28.7c-0.1-1.7,0.3-3.6-0.9-5.1c-1-1.2-2.8-1.2-4.2-1.4c0-0.6,0-1.1,0-1.6 C115.1,104.7,120.3,104.5,125.5,104.5 M125.2,106.8c-1,0.3-1.4,1.4-1.4,2.4c0,4.7,0.2,9.5,0.2,14.2c2,0,4.2-0.2,6-1.1 c1.7-0.9,2.5-2.8,2.7-4.6c0.4-2.8,0.2-5.8-0.9-8.4c-0.4-1.1-1.3-2-2.4-2.4C128.1,106.4,126.6,106.3,125.2,106.8 M124.1,125.3 c-0.1,3.5,0.1,7,0.1,10.5c0.2,2.2-0.1,4.4,0.3,6.6c0.2,1.1,1.1,2.1,2.3,2.2c2,0.2,4.3-0.3,5.8-1.8c1.8-2.1,2.1-4.9,2.1-7.5 c-0.1-2.9-0.6-6.2-2.9-8.2C129.7,125.3,126.7,125.4,124.1,125.3z M144.9,110.9c2.1-0.2,4.2,0.1,6.3,0.1c3.2,0.1,6.5,0.2,9.7,0.3 c3.1,0.2,6.4,0.7,8.9,2.7c1.9,1.4,3,3.6,3.3,5.9c0.3,3.1-0.2,6.4-2.1,8.8c-1.3,1.5-2.9,2.8-4.9,3.2c0.1,0.5,0.4,1,0.6,1.4 c2.2,4.5,4.4,9,6.6,13.4c0.5,0.9,0.8,1.8,1.4,2.7c0.4,0.5,1,0.6,1.6,0.7c0,0.5,0,1,0,1.5c-3.3,0-6.5-0.2-9.7-0.2 c-3.2-6.3-6.2-12.6-9.3-18.9c-0.4,0-0.8,0-1.2,0.1c-0.1,4.1-0.2,8.3-0.4,12.4c0.1,1.2,0.1,2.5,0.8,3.5c0.8,0.9,2.1,1,3.2,1.2 c0,0.5-0.1,1-0.1,1.5c-5.3-0.2-10.6-0.3-16-0.5c0.1-0.5,0.1-1,0-1.5c1.2-0.1,2.6-0.2,3.4-1.2c0.8-1.1,0.8-2.5,0.9-3.8 c0.3-8.5,0.5-17,0.7-25.4c0-1.7,0.2-3.4-0.5-5c-0.6-1.2-2.1-1.3-3.3-1.5C144.8,111.9,144.9,111.4,144.9,110.9 M157.7,113.4 c-0.9,0.4-1,1.5-1,2.4c-0.1,4.9-0.3,9.9-0.4,14.8c2,0.1,4.1-0.1,5.9-1c1-0.5,1.7-1.4,2-2.4c0.9-2.4,0.9-4.9,0.8-7.4 c-0.1-1.7-0.5-3.5-1.5-4.9C162.2,113.2,159.7,112.8,157.7,113.4z M91.1,112.1c6.7-0.1,13.4,0.1,20.2,0.1c0,0.5,0,1.1,0,1.6 c-1.2,0.1-2.5,0.1-3.5,0.8c-0.9,0.9-1.1,2.2-1.1,3.4c0,1.6,0,3.2,0,4.8c-0.2,3.3,0,6.6-0.2,9.9c0.1,2-0.3,4,0.3,5.8 c0.6,1.8,2.7,2,4.3,2.1c0,0.5,0,1,0,1.6c-1.6,0.2-3.2,0-4.8,0.1c-3.1-0.2-6.1,0-9.2-0.1c-2.1,0-4.1,0-6.2,0c0-0.5,0.1-1.1,0.1-1.6 c1.1-0.1,2.4-0.1,3.4-0.9c0.7-0.6,1-1.4,1.1-2.3c0.2-3.7,0-7.4,0.2-11.2c0-2.5-0.1-4.9,0.1-7.4c0-1.4,0-3-1-4.1 c-0.9-0.8-2.3-0.9-3.4-1C91.1,113.2,91.1,112.7,91.1,112.1z"/>
<path fill="#FF8B00" d="M318.1,159.4l-4.5,32.9l-125.1-6.7l-1-25.1 M210.7,167.6c-1.5,0.4-3,1.5-3.4,3.1c-0.2,1.1-0.2,2.5,0.5,3.5 c1.4,1.7,3.7,2,5.7,2.4c0.4,0.2,0.9,0.5,0.7,1c-0.1,0.5-0.6,0.5-1,0.7c-1.4,0.2-2.9-0.4-4-1.2h-0.3c-0.6,0.8-1.2,1.6-1.9,2.4 c-0.2,0.4,0.3,0.6,0.6,0.7c1.9,1.3,4.4,1.7,6.7,1.2c1.2-0.3,2.5-0.9,3.3-2c0.9-1.3,0.9-3.2,0.1-4.6c-0.9-1.3-2.5-1.8-3.9-2.2 c-0.9-0.3-1.9-0.3-2.5-0.9c-0.4-0.8,0.6-1.3,1.3-1.2c1.3-0.2,2.5,0.6,3.6,1.2c0.4-0.7,0.9-1.2,1.4-1.9c0.1-0.3,0.6-0.5,0.4-0.9 C215.9,167.5,213.2,167,210.7,167.6 M221.3,169.2c1.2,1.9,2.6,3.8,3.9,5.7c0.2,0.3,0.5,0.5,0.5,0.9c0,1.8,0,3.7,0,5.5 c1.4,0,2.9,0,4.4,0c0-1.9,0-3.7,0-5.6c1.4-2.1,2.8-4.2,4.3-6.3v-0.3c-1.3-0.5-2.4-1.6-3.7-1.9c-0.8,1.5-1.8,2.9-2.6,4.4 c-0.4,0.2-0.4-0.4-0.5-0.6c-0.8-1.3-1.6-2.6-2.4-3.9C223.7,167.7,222.6,168.7,221.3,169.2 M238.2,169.5c-1,1.4-1,3.5,0.2,4.7 c1.1,1.3,2.9,1.7,4.5,2.1c0.7,0.1,1.5,0.3,1.7,1c-0.2,0.9-1.2,1-2,0.9c-1.2-0.2-2.3-0.7-3.3-1.4c-0.7,0.8-1.3,1.7-2,2.5 c0,0.1,0.1,0.3,0.1,0.4c2.3,1.8,5.5,2.3,8.3,1.3c1.6-0.6,3-2.2,2.9-4c0.1-1.3-0.6-2.7-1.8-3.4c-1.2-0.8-2.6-1-4-1.3 c-0.5-0.2-1-0.2-1.3-0.7c-0.2-0.5,0.2-0.9,0.7-1c1.1-0.2,2.2,0,3.2,0.6c0.4,0.2,0.7,0.6,1.2,0.5c0.3-0.6,0.8-1.1,1.2-1.7 c0.2-0.3,0.7-0.6,0.4-1c-1.8-1.2-3.9-1.7-6-1.6C240.7,167.5,239.1,168.2,238.2,169.5 M252,167.6c-0.1,1.1,0,2.2-0.3,3.2 c1,0,2.1-0.1,3.1-0.1c0.3,0,1-0.3,1,0.2c0,3.4,0.1,6.9-0.1,10.3c1.4,0,2.9,0,4.4,0c-0.2-3.5,0-7-0.1-10.5c1.4,0,2.7,0.1,4.1,0.1 c0.3-1.1,0.2-2.2,0.5-3.3C260.5,167.6,256.3,167.6,252,167.6 M268.3,167.6c0.2,1.8,0.1,3.6,0.1,5.4c-0.1,2.7,0.1,5.5-0.1,8.2 c3,0,6,0,9,0c0.1-1,0.5-2.1,0.5-3.2c-1.8,0.1-3.6,0-5.3,0.1c-0.1-0.6-0.1-1.2,0-1.9c1.7,0,3.3,0,5,0c0-1,0-2.1,0-3.1 c-1.7,0-3.4-0.1-5,0c0-0.8,0-1.6,0-2.4c1.8,0.1,3.6,0,5.4,0c0-1.1-0.3-2.1-0.3-3.2C274.5,167.6,271.4,167.6,268.3,167.6  M282.2,167.6c0,0.9,0.1,1.8,0.1,2.6c-0.1,3.7,0.1,7.4-0.1,11.1c1.3,0,2.6,0,3.9,0c-0.1-2.4,0.1-4.9-0.1-7.3c1.4,1.7,2.7,3.5,4,5.2 l0.3,0.1c1.6-1.6,2.7-3.7,4.3-5.3c-0.2,2.4,0,4.8-0.1,7.2c1.3-0.1,2.7,0,4-0.1c-0.3-2.8-0.1-5.6-0.2-8.4c0.1-1.7-0.2-3.5,0.3-5.2 c-1.2-0.1-2.4-0.1-3.7-0.2c-1.4,1.7-2.6,3.4-4,5.2c-0.2,0.3-0.6,0.9-0.9,0.4c-1.3-1.9-2.8-3.6-4-5.5 C284.7,167.4,283.4,167.6,282.2,167.6z"/>
<path fill="#FFC749" d="M247.8,69.4c3.4-3.5,8.5-5.2,13.2-5c6.1,0.2,7.1,4.6,3.1,8.7c-3.9,4-8.8,7.3-13.2,10.7 c-5.1,3.9-10.2,7.7-15.4,11.5c0.4-4.1,3.5-9.1,5.1-12.8C242.6,78.4,244.5,72.7,247.8,69.4C250.7,66.4,246.4,70.8,247.8,69.4z  M224.8,70.4c3.4-1.7,14-3.9,11.4,3.4c-2.2,6.3-5.9,12.3-9,18.3c-2.4-3.3-3.9-8-5.3-11.8C220.2,75.6,220.2,72.9,224.8,70.4 C227.4,69.1,223.1,71.3,224.8,70.4z M274.2,74.8c2-1.6,4.3-2.7,6.9-3c2.1-0.2,4.4,0.2,5.9,1.7c1,0.9,1.2,2.5,0.6,3.7 c-1.1,2.1-3.2,3.2-5.3,4.1c-4.4,1.8-9,3.4-13.4,5.2c-5.7,2.1-11.4,4.3-17.1,6.4c0.1-0.3,0.4-0.5,0.6-0.7 C259.5,86.2,266.7,80.3,274.2,74.8z M285.7,86.7c1.8-0.6,3.7-1,5.5-0.2c1.7,0.7,2.6,2.8,2.2,4.6c-0.3,1.8-1.8,3.2-3.4,3.9 c-1.9,0.8-4,0.6-6.1,0.7c-7,0.3-14.1,0.6-21.1,1c0.3-0.3,0.7-0.5,1-0.6C271,92.6,278.2,89.2,285.7,86.7z M256.3,53.2 c17.3-1.9,36.6-3.1,53,3.9c17,7.3,20.4,23.6,13,39.6c-7.2,15.3-19.7,28.1-32.2,39.2c-6.6,5.8-13.5,11.3-20.7,16.4 c-3.6,2.6-7.2,5.1-10.8,7.5c-4.7,0-9.3,0.1-14,0c22.4-15.4,47.9-34,58.6-60.1c5.1-12.4,4.7-26.2-6.2-35.2 c-5.2-4.3-11.7-6.9-18.2-8.6C276.5,55.5,256.3,52.5,256.3,53.2C264,52.3,256.3,53.2,256.3,53.2z M46.6,156.5c-2.1,2.4-6,13.3-6.7,19 c-1.1,8.2,1.3,16.3,7.1,22.2c12.5,12.6,33.8,13.9,50.4,13.3c19.3-0.7,38.5-4.4,57-9.8c9.7-2.8,19.3-6.1,28.7-9.8 c4-1.6,9.3-2.9,12.8-5.4c5.1,0.2,10.1,0.5,15.1,0.8c-38.7,19-81.9,34.4-125.3,37.1c-17.2,1.1-42.1,1.2-54.1-13.7 C17.8,193.1,35.1,169.6,46.6,156.5C46.7,156.3,40.2,163.8,46.6,156.5z M58.2,167.7c10.2-0.2,20.4-0.8,30.5-1.3 c-2.3,1.3-4.8,2.3-7.1,3.5c-7.3,3.4-14.7,6.7-22.4,9.2c-1.9,0.6-3.9,0.9-5.8,0.1c-1.9-0.7-3.2-2.7-3.1-4.8c-0.1-1.8,0.8-3.5,2.2-4.7 C54.1,168.5,56.1,167.9,58.2,167.7z M90.8,192.6c10.5-8.5,21.4-16.5,32.2-24.6c0,0.3-0.1,0.5-0.2,0.7c-3.7,9.9-8,19.6-13.1,28.9 c-1.7,3.1-4.6,5.4-7.8,6.9c-3.6,1.7-7.7,2.5-11.7,2.2c-2.1-0.2-4.4-0.7-5.8-2.4c-1.1-1.4-0.7-3.5,0.1-4.9 C86,196.6,88.4,194.5,90.8,192.6z M95.4,173.6c2.4-0.9,4.8-1.9,7.3-2.6c-8.9,7.7-18,15.3-27.5,22.2c-1.3,0.9-2.6,2-4.1,2.7 c-2.9,1.5-6.4,2.1-9.6,1.1c-1.6-0.5-3.1-1.4-3.8-2.9c-0.7-1.5-0.3-3.3,0.7-4.5c1.7-2.1,4.1-3.4,6.6-4.4 C75,181.3,85.2,177.5,95.4,173.6z M123.4,191.9c3.2-6.7,6.6-13.3,10.1-19.9c3.2,6.3,6.1,12.7,8.1,19.5c0.6,1.9-0.3,3.9-1.7,5.2 c-2.3,2.3-5.5,3.6-8.7,4.4c-2.4,0.5-4.9,0.8-7.2-0.1c-1.3-0.5-2.3-1.7-2.4-3.1C121.4,195.8,122.6,193.8,123.4,191.9z M146.2,173.2 c5.7,3,11.3,6.2,17.2,8.8c1,0.4,1.7,1.6,1.3,2.7c-0.7,2.2-2.5,3.8-4.2,5.1c-2.1,1.5-4.7,2.8-7.3,2.5c-1.4-0.2-2.4-1.4-2.7-2.7 C148.6,184.1,147.5,178.6,146.2,173.2z"/>
</svg>
